<svg xmlns="http://www.w3.org/2000/svg" width="32" height="32" viewBox="0 0 32 32">
    <g fill="none" fill-rule="evenodd" transform="translate(4 1)">
        <path fill="#1E88E5"
              d="M2.999995,-3.5e-05 C1.349944,-3.5e-05 0.014929,1.349962 0.014929,2.999962 L-8.29999999e-05,27.000004 C-8.29999999e-05,28.649938 1.334932,29.999968 2.984956,29.999968 L20.999896,29.999968 C22.64992,29.999968 23.999974,28.649938 23.999974,27.000004 L23.999974,6.999958 L16.999981,-3.5e-05 L2.999995,-3.5e-05 Z"/>
        <path fill="#64B5F6"
              d="M18.99998,6.99997 C17.89539,6.99997 16.99997,6.10453 16.99997,4.99997 L16.99997,-5e-05 L23.99998,6.99997 L18.99998,6.99997 Z"/>
        <path fill="#FFF"
              d="M10.99992,11.999991 L11.999871,7.999997 L13.999906,7.999997 L11.999871,15.999985 L9.999969,15.999985 L8.9999705,11.999991 L7.999972,15.999985 L5.999956,15.999985 L3.99994,7.999997 L5.999956,7.999997 L6.999964,11.999991 L7.999972,7.999997 L9.999969,7.999997 L10.99992,11.999991 Z M15.999922,9.999994 L19.999935,9.999994 L19.999935,11.999991 L15.999922,11.999991 L15.999922,9.999994 Z M15.999922,13.999988 L19.999935,13.999988 L19.999935,15.999985 L15.999922,15.999985 L15.999922,13.999988 Z M3.99994,17.999982 L19.999935,17.999982 L19.999935,19.999979 L3.99994,19.999979 L3.99994,17.999982 Z M3.99994,21.999976 L19.999935,21.999976 L19.999935,23.999973 L3.99994,23.999973 L3.99994,21.999976 Z"/>
        <polygon fill="#000" fill-opacity=".15" points="18 7 24 7 24 14"/>
    </g>
</svg>
