<svg xmlns="http://www.w3.org/2000/svg" xmlns:xlink="http://www.w3.org/1999/xlink" width="32" height="32"
     viewBox="0 0 32 32">
    <defs>
        <path id="html-a"
              d="M2.999995,-3.5e-05 C1.349944,-3.5e-05 0.014929,1.349962 0.014929,2.999962 L-8.29999999e-05,27.000004 C-8.29999999e-05,28.649938 1.334932,29.999968 2.984956,29.999968 L20.999896,29.999968 C22.64992,29.999968 23.999974,28.649938 23.999974,27.000004 L23.999974,6.999958 L16.999981,-3.5e-05 L2.999995,-3.5e-05 Z"/>
    </defs>
    <g fill="none" fill-rule="evenodd" transform="translate(4 1)">
        <mask id="html-b" fill="#fff">
            <use xlink:href="#html-a"/>
        </mask>
        <use fill="#448AFF" xlink:href="#html-a"/>
        <polygon fill="#000" fill-opacity=".15" points="18 7 24 7 24 14" mask="url(#html-b)"/>
        <path fill="#FFF"
              d="M14.7486073,20.124998 C14.9664237,19.2818957 15.0988442,18.3273373 15.1214994,17.312498 L12.312498,17.312498 L12.312498,20.124998 L14.7486073,20.124998 Z M14.5648555,20.749994 L12.312498,20.749994 L12.312498,23.5300915 C13.24461,23.3357443 14.0562354,22.2812835 14.5648555,20.749994 Z M9.25137528,20.124998 L11.687484,20.124998 L11.687484,17.312498 L8.87848262,17.312498 C8.90113778,18.3273373 9.03355835,19.2818957 9.25137528,20.124998 Z M9.43512753,20.749994 C9.94374639,22.2812754 10.7553694,23.3357331 11.687484,23.5300884 L11.687484,20.749994 L9.43512753,20.749994 Z M17.772092,20.124998 C18.2295073,19.2818957 18.5075908,18.3273373 18.5551667,17.312498 L15.7464953,17.312498 C15.7240716,18.3171709 15.5940433,19.2684254 15.3779392,20.124998 L17.772092,20.124998 Z M17.3862125,20.749994 L15.1997501,20.749994 C14.8566395,21.8232181 14.3706755,22.7105139 13.7925764,23.3146717 C15.2673162,22.8968467 16.5308187,21.9763309 17.3862125,20.749994 Z M6.22787311,20.124998 L8.62204013,20.124998 C8.40593715,19.2684254 8.27591013,18.3171709 8.25348664,17.312498 L5.44479731,17.312498 C5.4923732,18.3273373 5.77045676,19.2818957 6.22787311,20.124998 Z M6.61375352,20.749994 C7.46914853,21.9763291 8.7326537,22.896844 10.2074017,23.3146699 C9.62930027,22.7105122 9.14333736,21.823217 8.80022842,20.749994 L6.61375352,20.749994 Z M14.7486073,13.875002 L12.312498,13.875002 L12.312498,16.687502 L15.1214994,16.687502 C15.0988442,15.6726627 14.9664237,14.7181043 14.7486073,13.875002 Z M14.5648555,13.250006 C14.0562354,11.7187165 13.24461,10.6642557 12.312498,10.4699085 L12.312498,13.250006 L14.5648555,13.250006 Z M9.25137528,13.875002 C9.03355835,14.7181043 8.90113778,15.6726627 8.87848262,16.687502 L11.687484,16.687502 L11.687484,13.875002 L9.25137528,13.875002 Z M9.43512753,13.250006 L11.687484,13.250006 L11.687484,10.4699116 C10.7553694,10.6642669 9.94374639,11.7187246 9.43512753,13.250006 Z M17.772092,13.875002 L15.3779392,13.875002 C15.5940433,14.7315746 15.7240716,15.6828291 15.7464953,16.687502 L18.5551667,16.687502 C18.5075908,15.6726627 18.2295073,14.7181043 17.772092,13.875002 Z M17.3862125,13.250006 C16.5308187,12.0236691 15.2673162,11.1031533 13.7925764,10.6853283 C14.3706755,11.2894861 14.8566395,12.1767819 15.1997501,13.250006 L17.3862125,13.250006 Z M6.22787311,13.875002 C5.77045676,14.7181043 5.4923732,15.6726627 5.44479731,16.687502 L8.25348664,16.687502 C8.27591013,15.6828291 8.40593715,14.7315746 8.62204013,13.875002 L6.22787311,13.875002 Z M6.61375352,13.250006 L8.80022842,13.250006 C9.14333736,12.176783 9.62930027,11.2894878 10.2074017,10.6853301 C8.7326537,11.103156 7.46914853,12.0236709 6.61375352,13.250006 Z M12,9.812492 C15.96954,9.812492 19.187472,13.03046 19.187472,17 C19.187472,20.96954 15.96954,24.187508 12,24.187508 C8.030442,24.187508 4.812492,20.96954 4.812492,17 C4.812492,13.03046 8.030442,9.812492 12,9.812492 Z"
              mask="url(#html-b)"/>
        <path fill="#82B1FF"
              d="M18.99998,6.99997 C17.89539,6.99997 16.99997,6.10453 16.99997,4.99997 L16.99997,-5e-05 L23.99997,6.99997 L18.99998,6.99997 Z"
              mask="url(#html-b)"/>
    </g>
</svg>
