<svg xmlns="http://www.w3.org/2000/svg" width="32" height="32" viewBox="0 0 32 32">
    <g fill="none" fill-rule="evenodd" transform="translate(4 1)">
        <path fill="#7CB342"
              d="M2.999995,-3.5e-05 C1.349944,-3.5e-05 0.014929,1.349962 0.014929,2.999962 L-0.00011,27.000004 C-0.00011,28.649938 1.334932,29.999968 2.984956,29.999968 L20.999896,29.999968 C22.64992,29.999968 23.999974,28.649938 23.999974,27.000004 L23.999974,6.999958 L16.999981,-3.5e-05 L2.999995,-3.5e-05 Z"/>
        <path fill="#AED581"
              d="M18.99998,6.99997 C17.89538,6.99997 16.99997,6.10453 16.99997,4.99997 L16.99997,-5e-05 L23.99997,6.99997 L18.99998,6.99997 Z"/>
        <polygon fill="#FFF" points="4 22 8 15.333 11.2 20.667 15.2 14 20 22"/>
        <polygon fill="#000" fill-opacity=".15" points="18 7 24 7 24 14"/>
    </g>
</svg>
