<svg xmlns="http://www.w3.org/2000/svg" width="109" height="57" viewBox="0 0 109 57" fill="none">
    <g opacity="0.9">
        <path fill-rule="evenodd" clip-rule="evenodd"
              d="M84.1 35L77.5 22.6L70.9 35H61L72 16.9L61 0H70.9L77.5 10.2L84.1 0H94L81.9 16.9L94 35H84.1ZM14 40V38H94V40H14ZM60 35L68 22.6V12L60 0V12.4H49V0H40V3.8C41.6 5.1 43 6.7 44 8.7C45.3 11.2 46 14.1 46 17.5C46 20.8 45.3 23.7 43.9 26.3C42.8 28.2 41.5 29.8 40 31.1V35H49V20.3H60V35ZM45 17.5C45 20.8 44.3 23.7 42.9 26.3C41.5 28.9 39.7 30.9 37.5 32.2C35.7 33.4 33.7 34.1 31.6 34.5C29.5 34.8 27.2 35 24.8 35H14V0H24.8C27.2 0 29.5 0.2 31.7 0.5C33.8 0.8 35.8 1.6 37.7 2.8C40 4.3 41.8 6.3 43.1 8.8C44.3 11.2 45 14.2 45 17.5ZM31.6 7.8C33.2 8.7 34.4 10 35.2 11.6C36 13.2 36.4 15.2 36.5 17.4C36.5 19.8 36.1 21.7 35.4 23.3C34.6 24.9 33.5 26.2 32.1 27.1C30.9 27.9 29.6 28.3 28.3 28.4C26.9 28.5 25.3 28.5 23.3 28.5H23.1V6.6H23.3C25.1 6.6 26.6 6.6 27.9 6.7C29.2 6.8 30.4 7.1 31.6 7.8ZM18 43V44H16V47H18V48H15V43H18ZM18 47V44H19V47H18ZM33 45H31V43H30V48H31V46H33V48H34V43H33V45ZM49 43V44H47V48H46V44H44V43H49ZM61 44H60V43H59V48H60V45H61V46H62V45H63V48H64V43H63V44H62V45H61V44ZM74 43H75V47H78V48H74V43ZM90 44H89V43H88V44H89V45H90V46H89V47H88V48H89V47H90V46H91V47H92V48H93V47H92V46H91V45H92V44H93V43H92V44H91V45H90V44Z"
              fill="black" fill-opacity="0.5"/>
        <rect y="42" width="109" height="9" fill="white"/>
        <path d="M10.3301 51.9326H6.39258V56H4.3418V46.0469H10.8223V47.708H6.39258V50.2783H10.3301V51.9326Z"
              fill="black" fill-opacity="0.5"/>
        <path d="M14.1924 56H12.1416V46.0469H14.1924V56Z" fill="black" fill-opacity="0.5"/>
        <path d="M18.1504 54.3525H22.5049V56H16.0996V46.0469H18.1504V54.3525Z" fill="black" fill-opacity="0.5"/>
        <path d="M29.6758 51.6865H25.7383V54.3525H30.3594V56H23.6875V46.0469H30.3457V47.708H25.7383V50.0801H29.6758V51.6865Z"
              fill="black" fill-opacity="0.5"/>
        <path d="M41.0371 51.6865H37.0996V54.3525H41.7207V56H35.0488V46.0469H41.707V47.708H37.0996V50.0801H41.0371V51.6865Z"
              fill="black" fill-opacity="0.5"/>
        <path d="M46.4854 49.4785L48.3516 46.0469H50.71L47.8115 50.9824L50.7852 56H48.3994L46.4854 52.5137L44.5713 56H42.1855L45.1592 50.9824L42.2607 46.0469H44.6191L46.4854 49.4785Z"
              fill="black" fill-opacity="0.5"/>
        <path d="M53.875 52.4932V56H51.8242V46.0469H55.707C56.4544 46.0469 57.1107 46.1836 57.6758 46.457C58.2454 46.7305 58.6829 47.1201 58.9883 47.626C59.2936 48.1273 59.4463 48.6992 59.4463 49.3418C59.4463 50.3171 59.1113 51.0872 58.4414 51.6523C57.776 52.2129 56.8532 52.4932 55.6729 52.4932H53.875ZM53.875 50.832H55.707C56.2493 50.832 56.6618 50.7044 56.9443 50.4492C57.2314 50.194 57.375 49.8294 57.375 49.3555C57.375 48.8678 57.2314 48.4736 56.9443 48.1729C56.6572 47.8721 56.2607 47.7171 55.7549 47.708H53.875V50.832Z"
              fill="black" fill-opacity="0.5"/>
        <path d="M62.9121 54.3525H67.2666V56H60.8613V46.0469H62.9121V54.3525Z" fill="black" fill-opacity="0.5"/>
        <path d="M76.1875 51.249C76.1875 52.2288 76.0143 53.0879 75.668 53.8262C75.3216 54.5645 74.8249 55.1341 74.1777 55.5352C73.5352 55.9362 72.7969 56.1367 71.9629 56.1367C71.138 56.1367 70.402 55.9385 69.7549 55.542C69.1077 55.1455 68.6064 54.5804 68.251 53.8467C67.8955 53.1084 67.7155 52.2607 67.7109 51.3037V50.8115C67.7109 49.8317 67.8864 48.9704 68.2373 48.2275C68.5928 47.4801 69.0918 46.9082 69.7344 46.5117C70.3815 46.1107 71.1198 45.9102 71.9492 45.9102C72.7786 45.9102 73.5146 46.1107 74.1572 46.5117C74.8044 46.9082 75.3034 47.4801 75.6543 48.2275C76.0098 48.9704 76.1875 49.8294 76.1875 50.8047V51.249ZM74.1094 50.7979C74.1094 49.7542 73.9225 48.9613 73.5488 48.4189C73.1751 47.8766 72.6419 47.6055 71.9492 47.6055C71.2611 47.6055 70.7301 47.8743 70.3564 48.4121C69.9827 48.9453 69.7936 49.7292 69.7891 50.7637V51.249C69.7891 52.2653 69.9759 53.0537 70.3496 53.6143C70.7233 54.1748 71.2611 54.4551 71.9629 54.4551C72.651 54.4551 73.1797 54.1862 73.5488 53.6484C73.918 53.1061 74.1048 52.3177 74.1094 51.2832V50.7979Z"
              fill="black" fill-opacity="0.5"/>
        <path d="M81.3623 52.3564H79.7285V56H77.6777V46.0469H81.376C82.5518 46.0469 83.4587 46.3089 84.0967 46.833C84.7347 47.3571 85.0537 48.0977 85.0537 49.0547C85.0537 49.7337 84.9056 50.3011 84.6094 50.7568C84.3177 51.208 83.8734 51.568 83.2764 51.8369L85.4297 55.9043V56H83.2285L81.3623 52.3564ZM79.7285 50.6953H81.3828C81.8978 50.6953 82.2965 50.5654 82.5791 50.3057C82.8617 50.0413 83.0029 49.679 83.0029 49.2188C83.0029 48.7493 82.8685 48.3802 82.5996 48.1113C82.3353 47.8424 81.9274 47.708 81.376 47.708H79.7285V50.6953Z"
              fill="black" fill-opacity="0.5"/>
        <path d="M92.6074 51.6865H88.6699V54.3525H93.291V56H86.6191V46.0469H93.2773V47.708H88.6699V50.0801H92.6074V51.6865Z"
              fill="black" fill-opacity="0.5"/>
        <path d="M98.1787 52.3564H96.5449V56H94.4941V46.0469H98.1924C99.3682 46.0469 100.275 46.3089 100.913 46.833C101.551 47.3571 101.87 48.0977 101.87 49.0547C101.87 49.7337 101.722 50.3011 101.426 50.7568C101.134 51.208 100.69 51.568 100.093 51.8369L102.246 55.9043V56H100.045L98.1787 52.3564ZM96.5449 50.6953H98.1992C98.7142 50.6953 99.113 50.5654 99.3955 50.3057C99.6781 50.0413 99.8193 49.679 99.8193 49.2188C99.8193 48.7493 99.6849 48.3802 99.416 48.1113C99.1517 47.8424 98.7438 47.708 98.1924 47.708H96.5449V50.6953Z"
              fill="black" fill-opacity="0.5"/>
    </g>
</svg>