<svg xmlns="http://www.w3.org/2000/svg" width="32" height="32" viewBox="0 0 32 32">
    <g fill="none" fill-rule="evenodd" transform="translate(4 1)">
        <path fill="#F44336"
              d="M2.999995,-3.5e-05 C1.349944,-3.5e-05 0.014929,1.349962 0.014929,2.999962 L-0.00011,27.000004 C-0.00011,28.649938 1.334905,29.999968 2.984956,29.999968 L20.999977,29.999968 C22.64992,29.999968 23.999974,28.649938 23.999974,27.000004 L23.999974,6.999958 L16.999954,-3.5e-05 L2.999995,-3.5e-05 Z"/>
        <path fill="#FFF"
              d="M19.83551,20.533239 C18.200597,20.487858 16.614152,19.969095 15.269123,19.040034 C13.134326,19.407996 11.034788,19.957293 8.993504,20.681877 C8.245274,22.077054 7.33526,23.379495 6.282131,24.562446 C5.686508,25.184802 3.998528,25.107291 3.998528,24.413745 C3.998528,22.878099 7.708556,20.831628 7.708556,20.831628 C7.708556,20.831628 3.879353,24.562446 4.854782,24.562446 C6.817169,24.562446 11.277212,14.114442 11.277212,14.114442 C10.677179,12.75192 10.386602,11.273604 10.42625,9.785733 C10.42625,8.949954 10.632617,7.995189 11.567579,7.995189 C12.502562,7.995189 12.737678,8.762991 12.423854,10.233873 C12.423854,10.233873 12.211187,8.14389 11.710085,8.14389 C11.209109,8.14389 11.316566,10.912509 11.710085,12.794361 C11.710085,12.794361 12.086699,11.626173 12.423854,10.24557 C12.44099,11.417391 12.34544,12.588057 12.138779,13.741692 C12.138779,14.697486 14.018321,17.504367 15.706301,18.297705 C15.706301,18.297705 17.540084,18.149004 18.846263,18.149004 C21.480944,18.144762 21.591593,20.533239 19.83551,20.533239 Z M11.630369,14.947092 C10.932854,16.770207 10.097516,18.537924 9.131789,20.234787 C10.821197,19.443066 12.610313,18.883605 14.450123,18.571671 C13.273913,17.566737 12.314612,16.333554 11.630369,14.947092 Z M16.695548,18.891333 C17.77961,19.412196 18.933686,19.773144 20.121593,19.962921 C20.409188,19.985097 20.662028,19.774635 20.691869,19.488216 C20.693885,18.495252 16.695548,18.891333 16.695548,18.891333 Z"
              opacity=".35"/>
        <path fill="#FFF"
              d="M19.83551,20.533239 C18.200597,20.487858 16.614152,19.969095 15.269123,19.040034 C13.134326,19.407996 11.034788,19.957293 8.993504,20.681877 C8.245274,22.077054 7.33526,23.379495 6.282131,24.562446 C5.686508,25.184802 3.998528,25.107291 3.998528,24.413745 C3.998528,22.878099 7.708556,20.831628 7.708556,20.831628 C7.708556,20.831628 3.879353,24.562446 4.854782,24.562446 C6.817169,24.562446 11.277212,14.114442 11.277212,14.114442 C10.677179,12.75192 10.386602,11.273604 10.42625,9.785733 C10.42625,8.949954 10.632617,7.995189 11.567579,7.995189 C12.502562,7.995189 12.737678,8.762991 12.423854,10.233873 C12.423854,10.233873 12.211187,8.14389 11.710085,8.14389 C11.209109,8.14389 11.316566,10.912509 11.710085,12.794361 C11.710085,12.794361 12.086699,11.626173 12.423854,10.24557 C12.44099,11.417391 12.34544,12.588057 12.138779,13.741692 C12.138779,14.697486 14.018321,17.504367 15.706301,18.297705 C15.706301,18.297705 17.540084,18.149004 18.846263,18.149004 C21.480944,18.144762 21.591593,20.533239 19.83551,20.533239 Z M11.630369,14.947092 C10.932854,16.770207 10.097516,18.537924 9.131789,20.234787 C10.821197,19.443066 12.610313,18.883605 14.450123,18.571671 C13.273913,17.566737 12.314612,16.333554 11.630369,14.947092 Z M16.695548,18.891333 C17.77961,19.412196 18.933686,19.773144 20.121593,19.962921 C20.409188,19.985097 20.662028,19.774635 20.691869,19.488216 C20.693885,18.495252 16.695548,18.891333 16.695548,18.891333 Z"/>
        <path fill="#FF8A80"
              d="M18.99997,6.99997 C17.89538,6.99997 16.99997,6.10453 16.99997,4.99997 L16.99997,-5e-05 L23.99997,6.99997 L18.99997,6.99997 Z"/>
        <polygon fill="#000" fill-opacity=".15" points="18 7 24 7 24 14"/>
    </g>
</svg>
