<svg xmlns="http://www.w3.org/2000/svg" width="32" height="32" viewBox="0 0 32 32">
    <g fill="none" fill-rule="evenodd" transform="translate(4 1)">
        <path fill="#4DB6AC"
              d="M2.999995,-3.5e-05 C1.349944,-3.5e-05 0.014929,1.349962 0.014929,2.999962 L-8.29999999e-05,27.000004 C-8.29999999e-05,28.649938 1.334932,29.999968 2.984983,29.999968 L20.999896,29.999968 C22.649947,29.999968 23.999974,28.649938 23.999974,27.000004 L23.999974,6.999958 L16.999981,-3.5e-05 L2.999995,-3.5e-05 Z"/>
        <path fill="#80CBC4"
              d="M18.99998,6.99997 C17.89539,6.99997 16.99998,6.10453 16.99998,4.99997 L16.99998,-5e-05 L23.99998,6.99997 L18.99998,6.99997 Z"/>
        <polygon fill="#000" fill-opacity=".15" points="18 7 24 7 24 14"/>
        <path fill="#FFF"
              d="M11.0909,17.6694488 L11.0909,13.399998 L11.0909,11.000006 L16.000004,11.000006 L16.000004,13.399998 L12.727256,13.399998 L12.727256,20.600002 L12.6982549,20.600002 C12.4997487,21.9569163 11.3062664,22.999994 9.863624,22.999994 C8.282096,22.999994 6.999992,21.746392 6.999992,20.199994 C6.999992,18.653596 8.282096,17.399994 9.863624,17.399994 C10.3028242,17.399994 10.7189311,17.4966713 11.0909,17.6694488 Z"/>
    </g>
</svg>
